<!-- Generator: Adobe Illustrator 24.2.3, SVG Export Plug-In  -->
<svg version="1.1" xmlns="http://www.w3.org/2000/svg" xmlns:xlink="http://www.w3.org/1999/xlink" x="0px" y="0px"
	 width="257.91px" height="219.38px" viewBox="0 0 257.91 219.38"
	 style="overflow:visible;enable-background:new 0 0 257.91 219.38;" xml:space="preserve">
<style type="text/css">
	.st0{fill:#FFFFFF;}
	.st1{fill:none;stroke:#000000;stroke-width:6;stroke-miterlimit:10;}
	.st2{fill:#FFFFFF;stroke:#000000;stroke-width:4;stroke-miterlimit:10;}
	.st3{stroke:#000000;stroke-miterlimit:10;}
</style>
<defs>
</defs>
<g>
	<path class="st0" d="M128.95,137.11"/>
	<path class="st1" d="M128.95,180.42"/>
	<path class="st2" d="M249.33,157.98H8.58c-3.63,0-6.58-2.94-6.58-6.58V8.58C2,4.94,4.94,2,8.58,2h240.75
		c3.63,0,6.58,2.94,6.58,6.58V151.4C255.91,155.03,252.96,157.98,249.33,157.98z"/>
	<path class="st3" d="M188.19,200.61v13.64c0,2.56-2.07,4.63-4.63,4.63h-25.27c-2.55,0-4.62-2.07-4.62-4.63v4.63h-49.45v-4.37
		c0,2.41-1.95,4.37-4.37,4.37H74.08c-2.42,0-4.37-1.96-4.37-4.37v-14.15c0-2.41,1.95-4.37,4.37-4.37h25.77
		c2.42,0,4.37,1.96,4.37,4.37v-30.93h49.45v31.18c0-2.55,2.07-4.62,4.62-4.62h25.27C186.12,195.99,188.19,198.06,188.19,200.61z"/>
</g>
</svg>
